<svg width="36" height="35" viewBox="0 0 36 35" fill="none" xmlns="http://www.w3.org/2000/svg">
<rect x="1" y="1" width="33.5577" height="32.4307" rx="3" fill="#2879BE" stroke="#1E4E77" stroke-width="2"/>
<path d="M7.42969 25.3682V22.3682H28.3721V25.3682" stroke="white" stroke-width="1.3"/>
<rect x="5.77109" y="5.82773" width="2.96025" height="2.96025" rx="1.48013" fill="#2377BF" stroke="white" stroke-width="1.3"/>
<rect x="5.77109" y="25.6432" width="2.96025" height="2.96025" fill="#2377BF" stroke="white" stroke-width="1.3"/>
<rect x="26.8258" y="5.82773" width="2.96025" height="2.96025" fill="#2377BF" stroke="white" stroke-width="1.3"/>
<path d="M7.42969 9.375V19.48H28.3721V9.375" stroke="white" stroke-width="1.3"/>
<rect x="26.8258" y="25.6432" width="2.96025" height="2.96025" rx="1.48013" fill="#2377BF" stroke="white" stroke-width="1.3"/>
<path d="M11.1211 14.6777L17.6211 9.17773L24.6211 14.6777L24.1211 25.1777H11.1211V14.6777Z" fill="white"/>
<path d="M24.3029 26.1777H10.9393C10.4121 26.1777 9.98473 25.7676 9.98473 25.2616V17.0168H7.12109L16.979 8.41598C17.343 8.09832 17.8992 8.09832 18.2632 8.41598L28.1211 17.0168H25.2575V25.2616C25.2575 25.7676 24.8301 26.1777 24.3029 26.1777ZM11.8938 24.3455H23.3484V15.3288L17.6211 10.3319L11.8938 15.3288V24.3455Z" fill="white"/>
<path d="M14.4062 23.4502V13.9048H17.7047C18.3273 13.9048 18.8448 14.0135 19.2571 14.231C19.6722 14.4454 19.9822 14.7391 20.1869 15.1119C20.3945 15.4848 20.4982 15.9074 20.4982 16.3797C20.4982 16.7681 20.4309 17.1006 20.2963 17.3771C20.1617 17.6506 19.9808 17.8727 19.7536 18.0436C19.5264 18.2145 19.2726 18.3373 18.9921 18.4118V18.5051C19.2978 18.5237 19.5909 18.6278 19.8714 18.8173C20.1547 19.0038 20.3861 19.2679 20.5656 19.6097C20.7451 19.9515 20.8348 20.3647 20.8348 20.8495C20.8348 21.3435 20.7268 21.7879 20.5109 22.1825C20.2949 22.574 19.9695 22.8832 19.5348 23.11C19.1001 23.3368 18.5531 23.4502 17.894 23.4502H14.4062ZM15.9671 22.0054H17.6458C18.2123 22.0054 18.6204 21.8857 18.8701 21.6465C19.1225 21.4041 19.2487 21.0934 19.2487 20.7143C19.2487 20.4316 19.1856 20.1768 19.0594 19.9499C18.9332 19.72 18.7537 19.5398 18.5209 19.4093C18.2881 19.2757 18.0104 19.2089 17.6879 19.2089H15.9671V22.0054ZM15.9671 17.9644H17.5111C17.7804 17.9644 18.023 17.91 18.239 17.8013C18.455 17.6894 18.6246 17.5325 18.7481 17.3305C18.8743 17.1254 18.9374 16.8831 18.9374 16.6034C18.9374 16.2337 18.8196 15.9292 18.584 15.6899C18.3512 15.4506 18.0048 15.331 17.5448 15.331H15.9671V17.9644Z" fill="#2377BF"/>
<rect x="16.1211" y="13.1777" width="2" height="2" fill="#2377BF"/>
<rect x="16.1211" y="22.1777" width="2" height="2" fill="#2377BF"/>
</svg>
