<svg width="32" height="32" viewBox="0 0 32 32" fill="none" xmlns="http://www.w3.org/2000/svg">
<g id="Frame">
<path id="Vector" d="M4 4H12V7H21V4H29V12H26V21H29V29H21V26H12V29H4V21H7V12H4V4ZM10 10V6H6V10H10ZM9 12V21H12V24H21V21H24V12H21V9H12V12H9ZM23 23V27H27V23H23ZM10 23H6V27H10V23ZM23 6V10H27V6H23Z" fill="#142B40"/>
<g id="Frame_2">
<path id="Vector_2" d="M19.6923 15.6807C20.3322 15.3604 20.7271 14.7771 20.6519 13.8175C20.5206 12.519 19.4665 12.0675 18.0362 11.9549V10.167H16.9261V11.9357C16.6251 11.9357 16.3428 11.9357 16.0604 11.9549V10.167H14.9317V11.9736C14.5362 11.9922 14.066 11.9736 12.7109 11.9736V13.1589C13.5766 13.1402 14.0287 13.0837 14.1419 13.667V18.6347C14.0666 19.0862 13.709 19.0109 12.9186 19.0109L12.7115 20.3281H14.9323V21.8337H16.0424V20.2907H16.908V21.8337H18.0181V20.2907C19.8813 20.1776 21.1232 19.7261 21.2731 17.9761C21.4055 16.5644 20.7271 15.9437 19.6923 15.6807ZM16.0424 13.2155C16.6444 13.2155 18.6207 13.0084 18.6207 14.3256C18.6207 15.5681 16.6636 15.417 16.0424 15.417V13.2155ZM16.0424 18.973V16.565C16.7762 16.565 19.0722 16.3579 19.0722 17.7882C19.0909 19.1241 16.7762 18.973 16.0424 18.973Z" fill="#142B40"/>
</g>
</g>
</svg>
