<svg width="32" height="32" viewBox="0 0 32 32" fill="none" xmlns="http://www.w3.org/2000/svg">
<g id="Frame" clip-path="url(#clip0_130_525)">
<g id="Frame_2">
<g id="Group 75">
<circle id="Ellipse 6" cx="16" cy="16" r="10" stroke="#00032A" stroke-width="2"/>
<g id="Frame_3">
<path id="Vector" d="M23.1175 21.6584C23.1175 22.0952 22.7635 22.4493 22.3267 22.4493H9.67363C9.23688 22.4493 8.88281 22.0952 8.88281 21.6584V13.3462C8.88281 13.1022 8.99548 12.8718 9.18812 12.722L15.5147 7.80135C15.8002 7.57924 16.2001 7.57924 16.4856 7.80135L22.8122 12.722C23.0048 12.8718 23.1175 13.1022 23.1175 13.3462V21.6584ZM21.5359 20.8676V13.733L16.0002 9.42744L10.4644 13.733V20.8676H21.5359Z" fill="#00032A"/>
<path id="Vector_2" d="M19.3255 14.265C19.3943 15.097 19.0735 15.5925 18.5422 15.8722C19.4008 16.1048 19.9236 16.6537 19.8172 17.8729C19.688 19.4011 18.6409 19.7993 17.1432 19.885L17.1475 21.4625L16.2654 21.4649L16.2611 19.8874C16.0195 19.8838 15.7781 19.8975 15.5366 19.8893L15.5409 21.4669L14.6604 21.4693L14.656 19.8917L12.8919 19.856L13.0391 18.7029C13.0391 18.7029 13.7054 18.7181 13.693 18.7097C13.9383 18.708 14.0108 18.5181 14.0288 18.3935L14.0211 15.8647L14.0257 14.0648C13.9984 13.8772 13.8811 13.6523 13.5205 13.6459C13.5401 13.6267 12.8746 13.6477 12.8746 13.6477L12.871 12.5908L14.6787 12.5859L14.6744 11.0407L15.5851 11.0382L15.5894 12.5834C15.8229 12.576 16.0523 12.5807 16.2875 12.5815L16.2832 11.0363L17.1693 11.0339L17.1737 12.6196C18.3227 12.7419 19.2241 13.1239 19.3255 14.265ZM15.5297 15.5315C16.0659 15.5563 17.6556 15.6299 17.6567 14.5783C17.6528 13.5798 16.2997 13.6137 15.6711 13.6295C15.597 13.6313 15.533 13.633 15.4824 13.6326L15.485 15.5294L15.5297 15.5315ZM15.4866 18.6236L15.5642 18.6269C16.2243 18.6556 18.0973 18.7371 18.0876 17.696C18.0941 16.6894 16.4348 16.714 15.6919 16.725C15.6105 16.7262 15.54 16.7273 15.4841 16.7268L15.4866 18.6236Z" fill="#00032A"/>
</g>
</g>
</g>
</g>
<defs>
<clipPath id="clip0_130_525">
<rect width="32" height="32" fill="white"/>
</clipPath>
</defs>
</svg>
