<svg width="18" height="18" viewBox="0 0 18 18" fill="none" xmlns="http://www.w3.org/2000/svg">
<path d="M4.09693 3.32447C5.41167 2.18766 7.12552 1.5 9 1.5C13.1421 1.5 16.5 4.85786 16.5 9C16.5 10.6021 15.9976 12.0869 15.1419 13.3055L12.75 9H15C15 5.68629 12.3137 3 9 3C7.38736 3 5.92333 3.6362 4.84517 4.67131L4.09693 3.32447ZM13.903 14.6756C12.5883 15.8123 10.8745 16.5 9 16.5C4.85786 16.5 1.5 13.1421 1.5 9C1.5 7.39789 2.00234 5.91312 2.8581 4.69458L5.25 9H3C3 12.3137 5.68629 15 9 15C10.6126 15 12.0767 14.3638 13.1549 13.3287L13.903 14.6756Z" fill="white"/>
<path d="M9.64837 8.28846V13H8.35207V8.28846H5.11133L9.00022 4.25L12.8891 8.28846H9.64837Z" fill="white"/>
</svg>
