<svg width="41" height="36" viewBox="0 0 41 36" fill="none" xmlns="http://www.w3.org/2000/svg">
<g id="Frame 8">
<path id="Rectangle 19" d="M30 16.5V10H27M11 17L11 10H14" stroke="white" stroke-width="1.3"/>
<g id="Group 10">
<rect id="Rectangle 18" x="22" y="17" width="16" height="16" rx="8" stroke="white" stroke-width="2"/>
<g id="Frame">
<g id="Group 12">
<path id="B" d="M27 30.0289V19.6196H30.8843C31.6175 19.6196 32.2269 19.7382 32.7124 19.9754C33.2013 20.2092 33.5663 20.5294 33.8074 20.936C34.0518 21.3426 34.174 21.8035 34.174 22.3185C34.174 22.7421 34.0947 23.1046 33.9362 23.4062C33.7776 23.7044 33.5646 23.9466 33.2971 24.133C33.0295 24.3194 32.7306 24.4532 32.4003 24.5345V24.6362C32.7603 24.6565 33.1055 24.77 33.4358 24.9767C33.7694 25.18 34.0419 25.468 34.2533 25.8408C34.4647 26.2135 34.5703 26.6642 34.5703 27.1927C34.5703 27.7315 34.4432 28.2161 34.1889 28.6464C33.9345 29.0733 33.5514 29.4105 33.0394 29.6578C32.5275 29.9052 31.8834 30.0289 31.1072 30.0289H27ZM28.8381 28.4532H30.8149C31.4821 28.4532 31.9627 28.3228 32.2566 28.0619C32.5539 27.7976 32.7025 27.4587 32.7025 27.0454C32.7025 26.737 32.6282 26.4592 32.4796 26.2118C32.331 25.9611 32.1196 25.7645 31.8454 25.6222C31.5713 25.4765 31.2443 25.4037 30.8644 25.4037H28.8381V28.4532ZM28.8381 24.0466H30.6564C30.9734 24.0466 31.2591 23.9873 31.5135 23.8687C31.7678 23.7467 31.9676 23.5756 32.113 23.3554C32.2616 23.1317 32.3359 22.8674 32.3359 22.5625C32.3359 22.1593 32.1972 21.8272 31.9197 21.5663C31.6456 21.3054 31.2377 21.1749 30.696 21.1749H28.8381V24.0466Z" fill="white"/>
<rect id="Rectangle 23" x="28.6348" y="19" width="2.24375" height="0.619619" fill="white"/>
<rect id="Rectangle 24" x="28.6348" y="29.9175" width="2.24375" height="0.619619" fill="white"/>
</g>
</g>
</g>
<g id="Group 9">
<g id="Frame_2">
<path id="Vector" d="M17.3008 33.3751H5.05078C4.56754 33.3751 4.17578 32.9834 4.17578 32.5001V24.6251H1.55078L10.5872 16.4102C10.9209 16.1068 11.4307 16.1068 11.7644 16.4102L20.8008 24.6251H18.1758V32.5001C18.1758 32.9834 17.784 33.3751 17.3008 33.3751ZM5.92578 31.6251H16.4258V23.0129L11.1758 18.2401L5.92578 23.0129V31.6251ZM8.55078 27.7501H13.8008V30.0001H8.55078V27.7501Z" fill="white"/>
</g>
</g>
<path id="Vector 1" d="M14 4.33333L20.6667 8M14 4.33333V13L20.6667 16M14 4.33333L20.6667 1L27 4.33333M20.6667 8V16M20.6667 8L27 4.33333M20.6667 16L27 13V4.33333" stroke="white" stroke-width="1.28571"/>
</g>
</svg>
