<svg width="24" height="24" viewBox="0 0 24 24" fill="none" xmlns="http://www.w3.org/2000/svg">
<g id="Frame">
<g id="Frame_2">
<path id="Vector" d="M1.63636 7.09047H16.3636V16.9086H1.63636V7.09047ZM0.818182 5.4541C0.366316 5.4541 0 5.82042 0 6.27228V17.7268C0 18.1787 0.366316 18.545 0.818182 18.545H17.1818C17.6337 18.545 18 18.1787 18 17.7268V6.27228C18 5.82042 17.6337 5.4541 17.1818 5.4541H0.818182ZM9.81818 8.72683H14.7273V10.3632H9.81818V8.72683ZM13.9091 11.9996H9.81818V13.6359H13.9091V11.9996ZM7.77273 10.3632C7.77273 11.4929 6.85694 12.4086 5.72727 12.4086C4.5976 12.4086 3.68182 11.4929 3.68182 10.3632C3.68182 9.23352 4.5976 8.31774 5.72727 8.31774C6.85694 8.31774 7.77273 9.23352 7.77273 10.3632ZM5.72727 13.2268C4.14573 13.2268 2.86364 14.5089 2.86364 16.0905H8.59091C8.59091 14.5089 7.30882 13.2268 5.72727 13.2268Z" fill="#00032A"/>
</g>
</g>
</svg>
