<svg width="38" height="38" viewBox="0 0 38 38" fill="none" xmlns="http://www.w3.org/2000/svg">
<g id="Coinbase">
<rect width="38" height="38" fill="white"/>
<g id="coinbase-coin-seeklogo 1" clip-path="url(#clip0_59_766)">
<path id="Vector" d="M18.9847 2.25977C28.2139 2.25977 35.6959 9.74177 35.6959 18.971C35.6959 28.2003 28.2139 35.6823 18.9847 35.6823C9.75543 35.6823 2.27344 28.2003 2.27344 18.971C2.27344 9.74177 9.75543 2.25977 18.9847 2.25977Z" fill="#0052FF"/>
<path id="Vector_2" d="M18.9939 24.8435C15.7459 24.8435 13.1214 22.2118 13.1214 18.971C13.1214 15.7303 15.7531 13.0985 18.9939 13.0985C21.9011 13.0985 24.3154 15.2155 24.7794 17.9923H30.6954C30.1951 11.9603 25.1491 7.21875 18.9866 7.21875C12.4979 7.21875 7.23438 12.4823 7.23438 18.971C7.23438 25.4597 12.4979 30.7232 18.9866 30.7232C25.1491 30.7232 30.1951 25.9818 30.6954 19.9497H24.7721C24.3081 22.7265 21.9011 24.8435 18.9939 24.8435Z" fill="white"/>
</g>
</g>
<defs>
<clipPath id="clip0_59_766">
<rect width="34" height="34" fill="white" transform="translate(2 2)"/>
</clipPath>
</defs>
</svg>
