<svg width="38" height="38" viewBox="0 0 38 38" fill="none" xmlns="http://www.w3.org/2000/svg">
<g id="Wallet Connect">
<rect width="38" height="38" fill="white"/>
<g id="Frame 48">
<g id="Group">
<path id="Vector" fill-rule="evenodd" clip-rule="evenodd" d="M19 2C28.3898 2 36 9.61016 36 19C36 28.3898 28.3898 36 19 36C9.61016 36 2 28.3898 2 19C2 9.61016 9.61016 2 19 2Z" fill="url(#paint0_radial_59_770)"/>
<path id="Vector_2" d="M12.8037 15.1287C16.2236 11.7885 21.7752 11.7885 25.1951 15.1287L25.6068 15.5338C25.7795 15.6998 25.7795 15.9721 25.6068 16.1381L24.199 17.5127C24.1127 17.599 23.9732 17.599 23.8869 17.5127L23.3225 16.9615C20.9318 14.6307 17.067 14.6307 14.6764 16.9615L14.0721 17.5525C13.9857 17.6389 13.8463 17.6389 13.76 17.5525L12.3521 16.1779C12.1795 16.0119 12.1795 15.7396 12.3521 15.5736L12.8037 15.1287ZM28.1104 17.9709L29.3654 19.1928C29.5381 19.3588 29.5381 19.6311 29.3654 19.7971L23.7143 25.3154C23.5416 25.4814 23.2627 25.4814 23.0967 25.3154L19.0857 21.3975C19.0459 21.3576 18.9729 21.3576 18.933 21.3975L14.9221 25.3154C14.7494 25.4814 14.4705 25.4814 14.3045 25.3154L8.6334 19.7971C8.46074 19.6311 8.46074 19.3588 8.6334 19.1928L9.88848 17.9709C10.0611 17.8049 10.34 17.8049 10.5061 17.9709L14.517 21.8889C14.5568 21.9287 14.6299 21.9287 14.6697 21.8889L18.6807 17.9709C18.8533 17.8049 19.1322 17.8049 19.2982 17.9709L23.3092 21.8889C23.349 21.9287 23.4221 21.9287 23.4619 21.8889L27.4728 17.9709C27.6588 17.8049 27.9377 17.8049 28.1104 17.9709Z" fill="white"/>
</g>
</g>
</g>
<defs>
<radialGradient id="paint0_radial_59_770" cx="0" cy="0" r="1" gradientUnits="userSpaceOnUse" gradientTransform="translate(2.00011 19.0005) scale(34)">
<stop stop-color="#5D9DF6"/>
<stop offset="1" stop-color="#006FFF"/>
</radialGradient>
</defs>
</svg>
